<?xml version="1.0" encoding="utf-8"?>
<svg version="1.1" xmlns:xlink="http://www.w3.org/1999/xlink" width="50px" height="50px" xmlns="http://www.w3.org/2000/svg">
  <g transform="matrix(1 0 0 1 -860 -705 )">
    <path d="M 49.3815104166667 0.618489583333331  C 49.7938368055556 1.03081597222222  50 1.51909722222222  50 2.08333333333333  L 50 47.9166666666667  C 50 48.4809027777778  49.7938368055556 48.9691840277778  49.3815104166667 49.3815104166667  C 48.9691840277778 49.7938368055556  48.4809027777778 50  47.9166666666667 50  L 2.08333333333333 50  C 1.51909722222222 50  1.03081597222222 49.7938368055556  0.618489583333333 49.3815104166667  C 0.206163194444444 48.9691840277778  0 48.4809027777778  0 47.9166666666667  L 0 2.08333333333333  C 0 1.51909722222222  0.206163194444444 1.03081597222222  0.618489583333333 0.618489583333331  C 1.03081597222222 0.206163194444442  1.51909722222222 0  2.08333333333333 0  L 47.9166666666667 0  C 48.4809027777778 0  48.9691840277778 0.206163194444442  49.3815104166667 0.618489583333331  Z " fill-rule="nonzero" fill="#70b603" stroke="none" transform="matrix(1 0 0 1 860 705 )" />
  </g>
</svg>