<?xml version="1.0" encoding="utf-8"?>
<svg version="1.1" xmlns:xlink="http://www.w3.org/1999/xlink" width="60px" height="60px" xmlns="http://www.w3.org/2000/svg">
  <g transform="matrix(1 0 0 1 -880 -150 )">
    <path d="M 18.3482142857143 2.37723214285714  C 22.0535714285714 0.792410714285714  25.9375 0  30 0  C 34.0625 0  37.9464285714286 0.792410714285714  41.6517857142857 2.37723214285714  C 45.3571428571429 3.96205357142857  48.5491071428571 6.09375  51.2276785714286 8.77232142857143  C 53.90625 11.4508928571429  56.0379464285714 14.6428571428571  57.6227678571429 18.3482142857143  C 59.2075892857143 22.0535714285714  60 25.9375  60 30  C 60 34.0625  59.2075892857143 37.9464285714286  57.6227678571429 41.6517857142857  C 56.0379464285714 45.3571428571429  53.90625 48.5491071428571  51.2276785714286 51.2276785714286  C 48.5491071428571 53.90625  45.3571428571429 56.0379464285714  41.6517857142857 57.6227678571429  C 37.9464285714286 59.2075892857143  34.0625 60  30 60  C 25.9375 60  22.0535714285714 59.2075892857143  18.3482142857143 57.6227678571429  C 14.6428571428571 56.0379464285714  11.4508928571429 53.90625  8.77232142857143 51.2276785714286  C 6.09375 48.5491071428571  3.96205357142857 45.3571428571429  2.37723214285714 41.6517857142857  C 0.792410714285714 37.9464285714286  0 34.0625  0 30  C 0 25.9375  0.792410714285714 22.0535714285714  2.37723214285714 18.3482142857143  C 3.96205357142857 14.6428571428571  6.09375 11.4508928571429  8.77232142857143 8.77232142857143  C 11.4508928571429 6.09375  14.6428571428571 3.96205357142857  18.3482142857143 2.37723214285714  Z M 42.0870535714286 7.29910714285714  C 38.2700892857143 5.29017857142857  34.2410714285714 4.28571428571428  30 4.28571428571428  C 25.7589285714286 4.28571428571428  21.7299107142857 5.29017857142857  17.9129464285714 7.29910714285714  L 24.4084821428571 13.7946428571429  C 26.2388392857143 13.1696428571429  28.1026785714286 12.8571428571429  30 12.8571428571429  C 31.8973214285714 12.8571428571429  33.7611607142857 13.1696428571429  35.5915178571429 13.7946428571429  L 42.0870535714286 7.29910714285714  Z M 4.28571428571429 30  C 4.28571428571429 34.2410714285714  5.29017857142857 38.2700892857143  7.29910714285714 42.0870535714286  L 13.7946428571429 35.5915178571429  C 13.1696428571429 33.7611607142857  12.8571428571429 31.8973214285714  12.8571428571429 30  C 12.8571428571429 28.1026785714286  13.1696428571429 26.2388392857143  13.7946428571429 24.4084821428571  L 7.29910714285714 17.9129464285714  C 5.29017857142857 21.7299107142857  4.28571428571429 25.7589285714286  4.28571428571429 30  Z M 17.9129464285714 52.7008928571429  C 21.7299107142857 54.7098214285714  25.7589285714286 55.7142857142857  30 55.7142857142857  C 34.2410714285714 55.7142857142857  38.2700892857143 54.7098214285714  42.0870535714286 52.7008928571429  L 35.5915178571429 46.2053571428571  C 33.7611607142857 46.8303571428571  31.8973214285714 47.1428571428571  30 47.1428571428571  C 28.1026785714286 47.1428571428571  26.2388392857143 46.8303571428571  24.4084821428571 46.2053571428571  L 17.9129464285714 52.7008928571429  Z M 20.9095982142857 39.0904017857143  C 23.4207589285714 41.6015625  26.4508928571429 42.8571428571429  30 42.8571428571429  C 33.5491071428571 42.8571428571429  36.5792410714286 41.6015625  39.0904017857143 39.0904017857143  C 41.6015625 36.5792410714286  42.8571428571429 33.5491071428571  42.8571428571429 30  C 42.8571428571429 26.4508928571429  41.6015625 23.4207589285714  39.0904017857143 20.9095982142857  C 36.5792410714286 18.3984375  33.5491071428571 17.1428571428571  30 17.1428571428571  C 26.4508928571429 17.1428571428571  23.4207589285714 18.3984375  20.9095982142857 20.9095982142857  C 18.3984375 23.4207589285714  17.1428571428571 26.4508928571429  17.1428571428571 30  C 17.1428571428571 33.5491071428571  18.3984375 36.5792410714286  20.9095982142857 39.0904017857143  Z M 47.1428571428571 30  C 47.1428571428571 31.8973214285714  46.8303571428571 33.7611607142857  46.2053571428571 35.5915178571429  L 52.7008928571429 42.0870535714286  C 54.7098214285714 38.2700892857143  55.7142857142857 34.2410714285714  55.7142857142857 30  C 55.7142857142857 25.7589285714286  54.7098214285714 21.7299107142857  52.7008928571429 17.9129464285714  L 46.2053571428571 24.4084821428571  C 46.8303571428571 26.2388392857143  47.1428571428571 28.1026785714286  47.1428571428571 30  Z " fill-rule="nonzero" fill="#000000" stroke="none" transform="matrix(1 0 0 1 880 150 )" />
  </g>
</svg>