<?xml version="1.0" encoding="utf-8"?>
<svg version="1.1" xmlns:xlink="http://www.w3.org/1999/xlink" width="80px" height="60px" xmlns="http://www.w3.org/2000/svg">
  <g transform="matrix(1 0 0 1 -890 -210 )">
    <path d="M 38.5546875 43.33984375  C 39.5182291666667 42.2330729166667  40 40.8463541666667  40 39.1796875  C 40 37.5130208333333  39.8828125 35.9830729166667  39.6484375 34.58984375  C 39.4140625 33.1966145833333  39.0299479166667 31.85546875  38.49609375 30.56640625  C 37.9622395833333 29.27734375  37.1744791666667 28.26171875  36.1328125 27.51953125  C 35.0911458333333 26.77734375  33.828125 26.40625  32.34375 26.40625  C 32.1875 26.5104166666667  31.796875 26.7447916666667  31.171875 27.109375  C 30.546875 27.4739583333333  30.05859375 27.75390625  29.70703125 27.94921875  C 29.35546875 28.14453125  28.8932291666667 28.3723958333333  28.3203125 28.6328125  C 27.7473958333333 28.8932291666667  27.1875 29.08203125  26.640625 29.19921875  C 26.09375 29.31640625  25.546875 29.375  25 29.375  C 24.453125 29.375  23.90625 29.31640625  23.359375 29.19921875  C 22.8125 29.08203125  22.2526041666667 28.8932291666667  21.6796875 28.6328125  C 21.1067708333333 28.3723958333333  20.64453125 28.14453125  20.29296875 27.94921875  C 19.94140625 27.75390625  19.453125 27.4739583333333  18.828125 27.109375  C 18.203125 26.7447916666667  17.8125 26.5104166666667  17.65625 26.40625  C 16.171875 26.40625  14.9088541666667 26.77734375  13.8671875 27.51953125  C 12.8255208333333 28.26171875  12.0377604166667 29.27734375  11.50390625 30.56640625  C 10.9700520833333 31.85546875  10.5859375 33.1966145833333  10.3515625 34.58984375  C 10.1171875 35.9830729166667  10 37.5130208333333  10 39.1796875  C 10 40.8463541666667  10.4817708333333 42.2330729166667  11.4453125 43.33984375  C 12.4088541666667 44.4466145833333  13.59375 45  15 45  L 35 45  C 36.40625 45  37.5911458333333 44.4466145833333  38.5546875 43.33984375  Z M 31.26953125 25.13671875  C 33.0013020833333 23.4049479166667  33.8671875 21.3151041666667  33.8671875 18.8671875  C 33.8671875 16.4192708333333  33.0013020833333 14.3294270833333  31.26953125 12.59765625  C 29.5377604166667 10.8658854166667  27.4479166666667 10  25 10  C 22.5520833333333 10  20.4622395833333 10.8658854166667  18.73046875 12.59765625  C 16.9986979166667 14.3294270833333  16.1328125 16.4192708333333  16.1328125 18.8671875  C 16.1328125 21.3151041666667  16.9986979166667 23.4049479166667  18.73046875 25.13671875  C 20.4622395833333 26.8684895833333  22.5520833333333 27.734375  25 27.734375  C 27.4479166666667 27.734375  29.5377604166667 26.8684895833333  31.26953125 25.13671875  Z M 69.6484375 39.6484375  C 69.8828125 39.4140625  70 39.1145833333333  70 38.75  L 70 36.25  C 70 35.8854166666667  69.8828125 35.5859375  69.6484375 35.3515625  C 69.4140625 35.1171875  69.1145833333333 35  68.75 35  L 46.25 35  C 45.8854166666667 35  45.5859375 35.1171875  45.3515625 35.3515625  C 45.1171875 35.5859375  45 35.8854166666667  45 36.25  L 45 38.75  C 45 39.1145833333333  45.1171875 39.4140625  45.3515625 39.6484375  C 45.5859375 39.8828125  45.8854166666667 40  46.25 40  L 68.75 40  C 69.1145833333333 40  69.4140625 39.8828125  69.6484375 39.6484375  Z M 69.58984375 29.58984375  C 69.86328125 29.31640625  70 28.984375  70 28.59375  L 70 26.40625  C 70 26.015625  69.86328125 25.68359375  69.58984375 25.41015625  C 69.31640625 25.13671875  68.984375 25  68.59375 25  L 46.40625 25  C 46.015625 25  45.68359375 25.13671875  45.41015625 25.41015625  C 45.13671875 25.68359375  45 26.015625  45 26.40625  L 45 28.59375  C 45 28.984375  45.13671875 29.31640625  45.41015625 29.58984375  C 45.68359375 29.86328125  46.015625 30  46.40625 30  L 68.59375 30  C 68.984375 30  69.31640625 29.86328125  69.58984375 29.58984375  Z M 69.6484375 19.6484375  C 69.8828125 19.4140625  70 19.1145833333333  70 18.75  L 70 16.25  C 70 15.8854166666667  69.8828125 15.5859375  69.6484375 15.3515625  C 69.4140625 15.1171875  69.1145833333333 15  68.75 15  L 46.25 15  C 45.8854166666667 15  45.5859375 15.1171875  45.3515625 15.3515625  C 45.1171875 15.5859375  45 15.8854166666667  45 16.25  L 45 18.75  C 45 19.1145833333333  45.1171875 19.4140625  45.3515625 19.6484375  C 45.5859375 19.8828125  45.8854166666667 20  46.25 20  L 68.75 20  C 69.1145833333333 20  69.4140625 19.8828125  69.6484375 19.6484375  Z M 78.1640625 1.8359375  C 79.3880208333333 3.05989583333333  80 4.53125  80 6.25  L 80 53.75  C 80 55.46875  79.3880208333333 56.9401041666667  78.1640625 58.1640625  C 76.9401041666667 59.3880208333333  75.46875 60  73.75 60  L 60 60  L 60 56.25  C 60 55.8854166666667  59.8828125 55.5859375  59.6484375 55.3515625  C 59.4140625 55.1171875  59.1145833333333 55  58.75 55  L 56.25 55  C 55.8854166666667 55  55.5859375 55.1171875  55.3515625 55.3515625  C 55.1171875 55.5859375  55 55.8854166666667  55 56.25  L 55 60  L 25 60  L 25 56.25  C 25 55.8854166666667  24.8828125 55.5859375  24.6484375 55.3515625  C 24.4140625 55.1171875  24.1145833333333 55  23.75 55  L 21.25 55  C 20.8854166666667 55  20.5859375 55.1171875  20.3515625 55.3515625  C 20.1171875 55.5859375  20 55.8854166666667  20 56.25  L 20 60  L 6.25 60  C 4.53125 60  3.05989583333333 59.3880208333333  1.8359375 58.1640625  C 0.611979166666667 56.9401041666667  0 55.46875  0 53.75  L 0 6.25  C 0 4.53125  0.611979166666667 3.05989583333333  1.8359375 1.8359375  C 3.05989583333333 0.611979166666661  4.53125 0  6.25 0  L 73.75 0  C 75.46875 0  76.9401041666667 0.611979166666661  78.1640625 1.8359375  Z " fill-rule="nonzero" fill="#000000" stroke="none" transform="matrix(1 0 0 1 890 210 )" />
  </g>
</svg>