<?xml version="1.0" encoding="utf-8"?>
<svg version="1.1" xmlns:xlink="http://www.w3.org/1999/xlink" width="70px" height="45px" xmlns="http://www.w3.org/2000/svg">
  <g transform="matrix(1 0 0 1 -230 -146 )">
    <path d="M 18.6666666666667 16.0714285714286  C 18.6666666666667 18.3984375  19.6510416666667 20.5412946428571  21.6197916666667 22.5  C 17.6822916666667 22.5837053571429  14.4618055555556 23.6551339285714  11.9583333333333 25.7142857142857  L 7.07291666666667 25.7142857142857  C 5.07986111111111 25.7142857142857  3.40277777777778 25.3752790178571  2.04166666666667 24.697265625  C 0.680555555555555 24.0192522321429  0 23.02734375  0 21.7215401785714  C 0 15.8119419642857  1.50694444444444 12.8571428571429  4.52083333333333 12.8571428571429  C 4.66666666666667 12.8571428571429  5.1953125 13.0329241071429  6.10677083333333 13.3844866071429  C 7.01822916666667 13.7360491071429  8.203125 14.091796875  9.66145833333333 14.4517299107143  C 11.1197916666667 14.8116629464286  12.5659722222222 14.9916294642857  14 14.9916294642857  C 15.6284722222222 14.9916294642857  17.2447916666667 14.7991071428571  18.8489583333333 14.4140625  C 18.7274305555556 15.0334821428571  18.6666666666667 15.5859375  18.6666666666667 16.0714285714286  Z M 60.5390625 35.8970424107143  C 60.6241319444445 36.7424665178571  60.6666666666667 37.6088169642857  60.6666666666667 38.49609375  C 60.6666666666667 40.5050223214286  59.7795138888889 42.0912388392857  58.0052083333333 43.2547433035714  C 56.2309027777778 44.4182477678571  53.8732638888889 45  50.9322916666667 45  L 19.0677083333333 45  C 16.1267361111111 45  13.7690972222222 44.4182477678571  11.9947916666667 43.2547433035714  C 10.2204861111111 42.0912388392857  9.33333333333333 40.5050223214286  9.33333333333333 38.49609375  C 9.33333333333333 37.6088169642857  9.37586805555556 36.7424665178571  9.4609375 35.8970424107143  C 9.54600694444445 35.0516183035714  9.71614583333333 34.1392299107143  9.97135416666667 33.1598772321429  C 10.2265625 32.1805245535714  10.5486111111111 31.2723214285714  10.9375 30.4352678571429  C 11.3263888888889 29.5982142857143  11.8489583333333 28.7820870535714  12.5052083333333 27.9868861607143  C 13.1614583333333 27.1916852678571  13.9149305555556 26.513671875  14.765625 25.9528459821429  C 15.6163194444444 25.3920200892857  16.6553819444444 24.9441964285714  17.8828125 24.609375  C 19.1102430555556 24.2745535714286  20.4652777777778 24.1071428571429  21.9479166666667 24.1071428571429  C 22.1909722222222 24.1071428571429  22.7135416666667 24.287109375  23.515625 24.6470424107143  C 24.3177083333333 25.0069754464286  25.2048611111111 25.4087611607143  26.1770833333333 25.8523995535714  C 27.1493055555556 26.2960379464286  28.4496527777778 26.6978236607143  30.078125 27.0577566964286  C 31.7065972222222 27.4176897321429  33.3472222222222 27.59765625  35 27.59765625  C 36.6527777777778 27.59765625  38.2934027777778 27.4176897321429  39.921875 27.0577566964286  C 41.5503472222222 26.6978236607143  42.8506944444445 26.2960379464286  43.8229166666667 25.8523995535714  C 44.7951388888889 25.4087611607143  45.6822916666667 25.0069754464286  46.484375 24.6470424107143  C 47.2864583333333 24.287109375  47.8090277777778 24.1071428571429  48.0520833333333 24.1071428571429  C 49.5347222222222 24.1071428571429  50.8897569444445 24.2745535714286  52.1171875 24.609375  C 53.3446180555556 24.9441964285714  54.3836805555556 25.3920200892857  55.234375 25.9528459821429  C 56.0850694444445 26.513671875  56.8385416666667 27.1916852678571  57.4947916666667 27.9868861607143  C 58.1510416666667 28.7820870535714  58.6736111111111 29.5982142857143  59.0625 30.4352678571429  C 59.4513888888889 31.2723214285714  59.7734375 32.1805245535714  60.0286458333333 33.1598772321429  C 60.2838541666667 34.1392299107143  60.4539930555556 35.0516183035714  60.5390625 35.8970424107143  Z M 20.5989583333333 1.88337053571429  C 22.421875 3.13895089285714  23.3333333333333 4.65401785714285  23.3333333333333 6.42857142857143  C 23.3333333333333 8.203125  22.421875 9.71819196428571  20.5989583333333 10.9737723214286  C 18.7760416666667 12.2293526785714  16.5763888888889 12.8571428571429  14 12.8571428571429  C 11.4236111111111 12.8571428571429  9.22395833333333 12.2293526785714  7.40104166666667 10.9737723214286  C 5.578125 9.71819196428571  4.66666666666667 8.203125  4.66666666666667 6.42857142857143  C 4.66666666666667 4.65401785714285  5.578125 3.13895089285714  7.40104166666667 1.88337053571429  C 9.22395833333333 0.627790178571431  11.4236111111111 0  14 0  C 16.5763888888889 0  18.7760416666667 0.627790178571431  20.5989583333333 1.88337053571429  Z M 44.8984375 9.25362723214286  C 47.6328125 11.1369977678571  49 13.4095982142857  49 16.0714285714286  C 49 18.7332589285714  47.6328125 21.005859375  44.8984375 22.8892299107143  C 42.1640625 24.7726004464286  38.8645833333333 25.7142857142857  35 25.7142857142857  C 31.1354166666667 25.7142857142857  27.8359375 24.7726004464286  25.1015625 22.8892299107143  C 22.3671875 21.005859375  21 18.7332589285714  21 16.0714285714286  C 21 13.4095982142857  22.3671875 11.1369977678571  25.1015625 9.25362723214286  C 27.8359375 7.37025669642857  31.1354166666667 6.42857142857143  35 6.42857142857143  C 38.8645833333333 6.42857142857143  42.1640625 7.37025669642857  44.8984375 9.25362723214286  Z M 65.4791666666667 12.8571428571429  C 68.4930555555556 12.8571428571429  70 15.8119419642857  70 21.7215401785714  C 70 23.02734375  69.3194444444444 24.0192522321429  67.9583333333333 24.697265625  C 66.5972222222222 25.3752790178571  64.9201388888889 25.7142857142857  62.9270833333333 25.7142857142857  L 58.0416666666667 25.7142857142857  C 55.5381944444445 23.6551339285714  52.3177083333333 22.5837053571429  48.3802083333333 22.5  C 50.3489583333333 20.5412946428571  51.3333333333333 18.3984375  51.3333333333333 16.0714285714286  C 51.3333333333333 15.5859375  51.2725694444445 15.0334821428571  51.1510416666667 14.4140625  C 52.7552083333333 14.7991071428571  54.3715277777778 14.9916294642857  56 14.9916294642857  C 57.4340277777778 14.9916294642857  58.8802083333333 14.8116629464286  60.3385416666667 14.4517299107143  C 61.796875 14.091796875  62.9817708333333 13.7360491071429  63.8932291666667 13.3844866071429  C 64.8046875 13.0329241071429  65.3333333333333 12.8571428571429  65.4791666666667 12.8571428571429  Z M 62.5989583333333 1.88337053571429  C 64.421875 3.13895089285714  65.3333333333333 4.65401785714285  65.3333333333333 6.42857142857143  C 65.3333333333333 8.203125  64.421875 9.71819196428571  62.5989583333333 10.9737723214286  C 60.7760416666667 12.2293526785714  58.5763888888889 12.8571428571429  56 12.8571428571429  C 53.4236111111111 12.8571428571429  51.2239583333333 12.2293526785714  49.4010416666667 10.9737723214286  C 47.578125 9.71819196428571  46.6666666666667 8.203125  46.6666666666667 6.42857142857143  C 46.6666666666667 4.65401785714285  47.578125 3.13895089285714  49.4010416666667 1.88337053571429  C 51.2239583333333 0.627790178571431  53.4236111111111 0  56 0  C 58.5763888888889 0  60.7760416666667 0.627790178571431  62.5989583333333 1.88337053571429  Z " fill-rule="nonzero" fill="#000000" stroke="none" transform="matrix(1 0 0 1 230 146 )" />
  </g>
</svg>