<?xml version="1.0" encoding="utf-8"?>
<svg version="1.1" xmlns:xlink="http://www.w3.org/1999/xlink" width="70px" height="45px" xmlns="http://www.w3.org/2000/svg">
  <g transform="matrix(1 0 0 1 -564 -146 )">
    <path d="M 29.54833984375 34.4970703125  C 30.26611328125 33.7451171875  30.625 32.83203125  30.625 31.7578125  C 30.625 30.703125  30.53955078125 29.7216796875  30.36865234375 28.8134765625  C 30.19775390625 27.9052734375  29.9186197916667 27.0263671875  29.53125 26.1767578125  C 29.1438802083333 25.3271484375  28.5628255208333 24.658203125  27.7880859375 24.169921875  C 27.0133463541667 23.681640625  26.0904947916667 23.4375  25.01953125 23.4375  C 23.5611979166667 24.6875  21.7838541666667 25.3125  19.6875 25.3125  C 17.5911458333333 25.3125  15.8138020833333 24.6875  14.35546875 23.4375  C 13.2845052083333 23.4375  12.3616536458333 23.681640625  11.5869140625 24.169921875  C 10.8121744791667 24.658203125  10.2311197916667 25.3271484375  9.84375 26.1767578125  C 9.45638020833333 27.0263671875  9.17724609375 27.9052734375  9.00634765625 28.8134765625  C 8.83544921875 29.7216796875  8.75 30.703125  8.75 31.7578125  C 8.75 32.83203125  9.10888671875 33.7451171875  9.82666015625 34.4970703125  C 10.54443359375 35.2490234375  11.4046223958333 35.625  12.4072265625 35  L 26.9677734375 35  C 27.9703776041667 35.625  28.83056640625 35.2490234375  29.54833984375 34.4970703125  Z M 24.3359375 22.734375  C 25.6119791666667 21.640625  26.25 20.3125  26.25 18.75  C 26.25 17.1875  25.6119791666667 15.859375  24.3359375 14.765625  C 23.0598958333333 13.671875  21.5104166666667 13.125  19.6875 13.125  C 17.8645833333333 13.125  16.3151041666667 13.671875  15.0390625 14.765625  C 13.7630208333333 15.859375  13.125 17.1875  13.125 18.75  C 13.125 20.3125  13.7630208333333 21.640625  15.0390625 22.734375  C 16.3151041666667 23.828125  17.8645833333333 24.375  19.6875 24.375  C 21.5104166666667 24.375  23.0598958333333 23.828125  24.3359375 22.734375  Z M 60.9423828125 33.486328125  C 61.1474609375 33.310546875  61.25 33.0859375  61.25 32.8125  L 61.25 30.9375  C 61.25 30.6640625  61.1474609375 30.439453125  60.9423828125 30.263671875  C 60.7373046875 30.087890625  60.4752604166667 30  60.15625 30  L 36.09375 30  C 35.7747395833333 30  35.5126953125 30.087890625  35.3076171875 30.263671875  C 35.1025390625 30.439453125  35 30.6640625  35 30.9375  L 35 32.8125  C 35 33.0859375  35.1025390625 33.310546875  35.3076171875 33.486328125  C 35.5126953125 33.662109375  35.7747395833333 33.75  36.09375 33  L 60.15625 33  C 60.4752604166667 33.75  60.7373046875 33.662109375  60.9423828125 33.486328125  Z M 47.8173828125 25.986328125  C 48.0224609375 25.810546875  48.125 25.5859375  48.125 25.3125  L 48.125 23.4375  C 48.125 23.1640625  48.0224609375 22.939453125  47.8173828125 22.763671875  C 47.6123046875 22.587890625  47.3502604166667 22.5  47.03125 22  L 36.09375 22  C 35.7747395833333 22.5  35.5126953125 22.587890625  35.3076171875 22.763671875  C 35.1025390625 22.939453125  35 23.1640625  35 23.4375  L 35 25.3125  C 35 25.5859375  35.1025390625 25.810546875  35.3076171875 25.986328125  C 35.5126953125 26.162109375  35.7747395833333 26.25  36.09375 26  L 47.03125 26  C 47.3502604166667 26.25  47.6123046875 26.162109375  47.8173828125 25.986328125  Z M 60.9423828125 25.986328125  C 61.1474609375 25.810546875  61.25 25.5859375  61.25 25.3125  L 61.25 23.4375  C 61.25 23.1640625  61.1474609375 22.939453125  60.9423828125 22.763671875  C 60.7373046875 22.587890625  60.4752604166667 22.5  60.15625 22.5  L 53.59375 22.5  C 53.2747395833333 22.5  53.0126953125 22.587890625  52.8076171875 22.763671875  C 52.6025390625 22.939453125  52.5 23.1640625  52.5 23.4375  L 52.5 25.3125  C 52.5 25.5859375  52.6025390625 25.810546875  52.8076171875 25.986328125  C 53.0126953125 26.162109375  53.2747395833333 26.25  53.59375 26.25  L 60.15625 26.25  C 60.4752604166667 26.25  60.7373046875 26.162109375  60.9423828125 25.986328125  Z M 60.9423828125 18.486328125  C 61.1474609375 18.310546875  61.25 18.0859375  61.25 17.8125  L 61.25 15.9375  C 61.25 15.6640625  61.1474609375 15.439453125  60.9423828125 15.263671875  C 60.7373046875 15.087890625  60.4752604166667 15  60.15625 15  L 36.09375 15  C 35.7747395833333 15  35.5126953125 15.087890625  35.3076171875 15.263671875  C 35.1025390625 15.439453125  35 15.6640625  35 15.9375  L 35 17.8125  C 35 18.0859375  35.1025390625 18.310546875  35.3076171875 18.486328125  C 35.5126953125 18.662109375  35.7747395833333 18.75  36.09375 19  L 60.15625 19  C 60.4752604166667 18.75  60.7373046875 18.662109375  60.9423828125 18.486328125  Z M 4.375 4.6875  L 4.375 8  L 65.625 8  L 65.625 4.6875  C 65.625 4.4140625  65.5224609375 4.189453125  65.3173828125 4.013671875  C 65.1123046875 3.837890625  64.8502604166667 3.75  64.53125 4  L 5.46875 4  C 5.14973958333333 3.75  4.8876953125 3.837890625  4.6826171875 4.013671875  C 4.4775390625 4.189453125  4.375 4.4140625  4.375 4.6875  Z M 68.3935546875 1.376953125  C 69.4645182291667 2.294921875  70 3.3984375  70 4.6875  L 70 40.3125  C 70 41.6015625  69.4645182291667 42.705078125  68.3935546875 43.623046875  C 67.3225911458333 44.541015625  66.03515625 45  64.53125 45  L 5.46875 45  C 3.96484375 45  2.67740885416667 44.541015625  1.6064453125 43.623046875  C 0.535481770833333 42.705078125  0 41.6015625  0 40.3125  L 0 4.6875  C 0 3.3984375  0.535481770833333 2.294921875  1.6064453125 1.376953125  C 2.67740885416667 0.458984374999996  3.96484375 0  5.46875 0  L 64.53125 0  C 66.03515625 0  67.3225911458333 0.458984374999996  68.3935546875 1.376953125  Z " fill-rule="nonzero" fill="#000000" stroke="none" transform="matrix(1 0 0 1 564 146 )" />
  </g>
</svg>