<?xml version="1.0" encoding="utf-8"?>
<svg version="1.1" xmlns:xlink="http://www.w3.org/1999/xlink" width="60px" height="45px" xmlns="http://www.w3.org/2000/svg">
  <g transform="matrix(1 0 0 1 -905 -146 )">
    <path d="M 41.7908653846154 34.1392299107143  C 42.8004807692308 33.3272879464286  43.3052884615385 32.3102678571429  43.3052884615385 31.0881696428571  C 43.3052884615385 30.1339285714286  43.2391826923077 29.23828125  43.1069711538462 28.4012276785714  C 42.9747596153846 27.5641741071429  42.7223557692308 26.7229352678571  42.3497596153846 25.8775111607143  C 41.9771634615385 25.0320870535714  41.5024038461538 24.3122209821429  40.9254807692308 23.7179129464286  C 40.3485576923077 23.1236049107143  39.5793269230769 22.6381138392857  38.6177884615385 22.2614397321429  C 37.65625 21.884765625  36.5625 21.6964285714286  35.3365384615385 21.6964285714286  C 35.1923076923077 21.7633928571429  34.7896634615385 21.9349888392857  34.1286057692308 22.2112165178571  C 33.4675480769231 22.4874441964286  32.9567307692308 22.6925223214286  32.5961538461538 22.8264508928571  C 32.2355769230769 22.9603794642857  31.7487980769231 23.1277901785714  31.1358173076923 23.3286830357143  C 30.5228365384615 23.5295758928571  29.9338942307692 23.671875  29.3689903846154 23.7555803571429  C 28.8040865384615 23.8392857142857  28.2451923076923 23.8811383928571  27.6923076923077 23.8811383928571  C 27.1394230769231 23.8811383928571  26.5805288461539 23.8392857142857  26.015625 23.7555803571429  C 25.4507211538462 23.671875  24.8617788461538 23.5295758928571  24.2487980769231 23.3286830357143  C 23.6358173076923 23.1277901785714  23.1490384615385 22.9603794642857  22.7884615384615 22.8264508928571  C 22.4278846153846 22.6925223214286  21.9170673076923 22.4874441964286  21.2560096153846 22.2112165178571  C 20.5949519230769 21.9349888392857  20.1923076923077 21.7633928571429  20.0480769230769 21.6964285714286  C 18.8221153846154 21.6964285714286  17.7283653846154 21.884765625  16.7668269230769 22.2614397321429  C 15.8052884615385 22.6381138392857  15.0360576923077 23.1236049107143  14.4591346153846 23.7179129464286  C 13.8822115384615 24.3122209821429  13.4074519230769 25.0320870535714  13.0348557692308 25.8775111607143  C 12.6622596153846 26.7229352678571  12.4098557692308 27.5641741071429  12.2776442307692 28.4012276785714  C 12.1454326923077 29.23828125  12.0793269230769 30.1339285714286  12.0793269230769 31.0881696428571  C 12.0793269230769 32.3102678571429  12.5841346153846 33.3272879464286  13.59375 34.1392299107143  C 14.6033653846154 34.951171875  15.8413461538462 35.3571428571429  17.3076923076923 35  L 38.0769230769231 35  C 39.5432692307692 35.3571428571429  40.78125 34.951171875  41.7908653846154 34.1392299107143  Z M 34.3088942307692 20.7672991071429  C 36.1478365384615 19.4949776785714  37.0673076923077 17.9631696428571  37.0673076923077 16.171875  C 37.0673076923077 14.3638392857143  36.1478365384615 12.8236607142857  34.3088942307692 11.5513392857143  C 32.4699519230769 10.2790178571429  30.2644230769231 9.64285714285714  27.6923076923077 9.64285714285714  C 25.1201923076923 9.64285714285714  22.9146634615385 10.2790178571429  21.0757211538462 11.5513392857143  C 19.2367788461538 12.8236607142857  18.3173076923077 14.3638392857143  18.3173076923077 16.171875  C 18.3173076923077 17.9631696428571  19.2367788461538 19.4949776785714  21.0757211538462 20.7672991071429  C 22.9146634615385 22.0396205357143  25.1201923076923 22.67578125  27.6923076923077 22.67578125  C 30.2644230769231 22.67578125  32.4699519230769 22.0396205357143  34.3088942307692 20.7672991071429  Z M 59.6754807692308 29.1545758928571  C 59.8918269230769 29.3052455357143  60 29.4977678571429  60 29.7321428571429  L 60 34.5535714285714  C 60 34.7879464285714  59.8918269230769 34.98046875  59.6754807692308 35.1311383928571  C 59.4591346153846 35.2818080357143  59.1826923076923 35.3571428571429  58.8461538461538 35.3571428571429  L 55.3846153846154 35.3571428571429  L 55.3846153846154 40.9821428571429  C 55.3846153846154 42.0870535714286  54.8197115384615 43.0329241071429  53.6899038461538 43.8197544642857  C 52.5600961538462 44.6065848214286  51.2019230769231 45  49.6153846153846 45  L 5.76923076923077 45  C 4.18269230769231 45  2.82451923076923 44.6065848214286  1.69471153846154 43.8197544642857  C 0.564903846153846 43.0329241071429  0 42.0870535714286  0 40.9821428571429  L 0 4.01785714285714  C 0 2.91294642857143  0.564903846153846 1.96707589285714  1.69471153846154 1.18024553571429  C 2.82451923076923 0.393415178571429  4.18269230769231 0  5.76923076923077 0  L 49.6153846153846 0  C 51.2019230769231 0  52.5600961538462 0.393415178571429  53.6899038461538 1.18024553571429  C 54.8197115384615 1.96707589285714  55.3846153846154 2.91294642857143  55.3846153846154 4.01785714285714  L 55.3846153846154 9.64285714285714  L 58.8461538461538 9.64285714285714  C 59.1826923076923 9.64285714285714  59.4591346153846 9.71819196428571  59.6754807692308 9.86886160714286  C 59.8918269230769 10.01953125  60 10.2120535714286  60 10.4464285714286  L 60 15.2678571428571  C 60 15.5022321428571  59.8918269230769 15.6947544642857  59.6754807692308 15.8454241071429  C 59.4591346153846 15.99609375  59.1826923076923 16.0714285714286  58.8461538461538 16.0714285714286  L 55.3846153846154 16.0714285714286  L 55.3846153846154 19.2857142857143  L 58.8461538461538 19.2857142857143  C 59.1826923076923 19.2857142857143  59.4591346153846 19.3610491071429  59.6754807692308 19.51171875  C 59.8918269230769 19.6623883928571  60 19.8549107142857  60 20.0892857142857  L 60 24.9107142857143  C 60 25.1450892857143  59.8918269230769 25.3376116071429  59.6754807692308 25.48828125  C 59.4591346153846 25.6389508928571  59.1826923076923 25.7142857142857  58.8461538461538 25.7142857142857  L 55.3846153846154 25.7142857142857  L 55.3846153846154 28.9285714285714  L 58.8461538461538 28.9285714285714  C 59.1826923076923 28.9285714285714  59.4591346153846 29.00390625  59.6754807692308 29.1545758928571  Z " fill-rule="nonzero" fill="#000000" stroke="none" transform="matrix(1 0 0 1 905 146 )" />
  </g>
</svg>