<?xml version="1.0" encoding="utf-8"?>
<svg version="1.1" xmlns:xlink="http://www.w3.org/1999/xlink" width="12px" height="12px" viewBox="428 586.5  12 12" xmlns="http://www.w3.org/2000/svg">
  <path d="M 434 586.5  C 437.36 586.5  440 589.14  440 592.5  C 440 595.86  437.36 598.5  434 598.5  C 430.64 598.5  428 595.86  428 592.5  C 428 589.14  430.64 586.5  434 586.5  Z " fill-rule="nonzero" fill="#ffffff" stroke="none" />
  <path d="M 434 587  C 437.08 587  439.5 589.42  439.5 592.5  C 439.5 595.58  437.08 598  434 598  C 430.92 598  428.5 595.58  428.5 592.5  C 428.5 589.42  430.92 587  434 587  Z " stroke-width="1" stroke="#797979" fill="none" />
  <path d="M 434 595.5  C 432.32 595.5  431 594.18  431 592.5  C 431 590.82  432.32 589.5  434 589.5  C 435.68 589.5  437 590.82  437 592.5  C 437 594.18  435.68 595.5  434 595.5  " fill-rule="nonzero" fill="#797979" stroke="none" />
</svg>