<?xml version="1.0" encoding="utf-8"?>
<svg version="1.1" xmlns:xlink="http://www.w3.org/1999/xlink" width="12px" height="12px" viewBox="728 586.5  12 12" xmlns="http://www.w3.org/2000/svg">
  <path d="M 734 586.5  C 737.36 586.5  740 589.14  740 592.5  C 740 595.86  737.36 598.5  734 598.5  C 730.64 598.5  728 595.86  728 592.5  C 728 589.14  730.64 586.5  734 586.5  Z " fill-rule="nonzero" fill="#ffffff" stroke="none" />
  <path d="M 734 587  C 737.08 587  739.5 589.42  739.5 592.5  C 739.5 595.58  737.08 598  734 598  C 730.92 598  728.5 595.58  728.5 592.5  C 728.5 589.42  730.92 587  734 587  Z " stroke-width="1" stroke="#797979" fill="none" />
  <path d="M 734 595.5  C 732.32 595.5  731 594.18  731 592.5  C 731 590.82  732.32 589.5  734 589.5  C 735.68 589.5  737 590.82  737 592.5  C 737 594.18  735.68 595.5  734 595.5  " fill-rule="nonzero" fill="#797979" stroke="none" />
</svg>