<?xml version="1.0" encoding="utf-8"?>
<svg version="1.1" xmlns:xlink="http://www.w3.org/1999/xlink" width="12px" height="12px" viewBox="428 370.5  12 12" xmlns="http://www.w3.org/2000/svg">
  <path d="M 434 370.5  C 437.36 370.5  440 373.14  440 376.5  C 440 379.86  437.36 382.5  434 382.5  C 430.64 382.5  428 379.86  428 376.5  C 428 373.14  430.64 370.5  434 370.5  Z " fill-rule="nonzero" fill="#ffffff" stroke="none" />
  <path d="M 434 371  C 437.08 371  439.5 373.42  439.5 376.5  C 439.5 379.58  437.08 382  434 382  C 430.92 382  428.5 379.58  428.5 376.5  C 428.5 373.42  430.92 371  434 371  Z " stroke-width="1" stroke="#797979" fill="none" />
  <path d="M 434 379.5  C 432.32 379.5  431 378.18  431 376.5  C 431 374.82  432.32 373.5  434 373.5  C 435.68 373.5  437 374.82  437 376.5  C 437 378.18  435.68 379.5  434 379.5  " fill-rule="nonzero" fill="#797979" stroke="none" />
</svg>