<?xml version="1.0" encoding="utf-8"?>
<svg version="1.1" xmlns:xlink="http://www.w3.org/1999/xlink" width="12px" height="12px" viewBox="728 370.5  12 12" xmlns="http://www.w3.org/2000/svg">
  <path d="M 734 370.5  C 737.36 370.5  740 373.14  740 376.5  C 740 379.86  737.36 382.5  734 382.5  C 730.64 382.5  728 379.86  728 376.5  C 728 373.14  730.64 370.5  734 370.5  Z " fill-rule="nonzero" fill="#ffffff" stroke="none" />
  <path d="M 734 371  C 737.08 371  739.5 373.42  739.5 376.5  C 739.5 379.58  737.08 382  734 382  C 730.92 382  728.5 379.58  728.5 376.5  C 728.5 373.42  730.92 371  734 371  Z " stroke-width="1" stroke="#797979" fill="none" />
  <path d="M 734 379.5  C 732.32 379.5  731 378.18  731 376.5  C 731 374.82  732.32 373.5  734 373.5  C 735.68 373.5  737 374.82  737 376.5  C 737 378.18  735.68 379.5  734 379.5  " fill-rule="nonzero" fill="#797979" stroke="none" />
</svg>