<?xml version="1.0" encoding="utf-8"?>
<svg version="1.1" xmlns:xlink="http://www.w3.org/1999/xlink" width="60px" height="45px" xmlns="http://www.w3.org/2000/svg">
  <g transform="matrix(1 0 0 1 -840 -710 )">
    <path d="M 29.3774319066148 23.8149350649351  L 1.75097276264591 44.5616883116883  C 1.25810635538262 44.9318181818182  0.843060959792478 45.0584415584416  0.505836575875486 44.9415584415584  C 0.168612191958496 44.8246753246753  0 44.512987012987  0 44.0064935064935  L 0 0.993506493506491  C 0 0.487012987012983  0.168612191958496 0.175324675324673  0.505836575875486 0.058441558441556  C 0.843060959792478 -0.058441558441561  1.25810635538262 0.0681818181818161  1.75097276264591 0.438311688311687  L 29.3774319066148 21.1850649350649  C 29.6108949416342 21.3603896103896  29.7795071335927 21.5454545454545  30 21.7402597402597  L 30 0.993506493506491  C 29.8832684824903 0.487012987012983  30.0518806744488 0.175324675324673  30.3891050583658 0.058441558441556  C 30.7263294422828 -0.058441558441561  31.1413748378729 0.0681818181818161  31.6342412451362 0.438311688311687  L 59.2607003891051 21.1850649350649  C 59.7535667963684 21.5551948051948  60 21.9935064935065  60 22.5  C 60 23.0064935064935  59.7535667963684 23.4448051948052  59.2607003891051 23.8149350649351  L 31.6342412451362 44.5616883116883  C 31.1413748378729 44.9318181818182  30.7263294422828 45.0584415584416  30.3891050583658 44.9415584415584  C 30.0518806744488 44.8246753246753  29.8832684824903 44.512987012987  30 44.0064935064935  L 30 23.2597402597403  C 29.7795071335927 23.4545454545455  29.6108949416342 23.6396103896104  29.3774319066148 23.8149350649351  Z " fill-rule="nonzero" fill="#70b603" stroke="none" transform="matrix(1 0 0 1 840 710 )" />
  </g>
</svg>