<?xml version="1.0" encoding="utf-8"?>
<svg version="1.1" xmlns:xlink="http://www.w3.org/1999/xlink" width="40px" height="40px" xmlns="http://www.w3.org/2000/svg">
  <defs>
    <filter x="227px" y="322px" width="40px" height="40px" filterUnits="userSpaceOnUse" id="filter21">
      <feOffset dx="1" dy="1" in="SourceAlpha" result="shadowOffsetInner" />
      <feGaussianBlur stdDeviation="2.5" in="shadowOffsetInner" result="shadowGaussian" />
      <feComposite in2="shadowGaussian" operator="atop" in="SourceAlpha" result="shadowComposite" />
      <feColorMatrix type="matrix" values="0 0 0 0 0  0 0 0 0 0  0 0 0 0 0  0 0 0 0.698039215686274 0  " in="shadowComposite" />
    </filter>
    <g id="widget22">
      <path d="M 246 326  C 254.4 326  261 332.6  261 341  C 261 349.4  254.4 356  246 356  C 237.6 356  231 349.4  231 341  C 231 332.6  237.6 326  246 326  Z " fill-rule="nonzero" fill="#009dd9" stroke="none" fill-opacity="0" />
      <path d="M 246 326.5  C 254.12 326.5  260.5 332.88  260.5 341  C 260.5 349.12  254.12 355.5  246 355.5  C 237.88 355.5  231.5 349.12  231.5 341  C 231.5 332.88  237.88 326.5  246 326.5  Z " stroke-width="1" stroke="#000080" fill="none" />
    </g>
  </defs>
  <g transform="matrix(1 0 0 1 -227 -322 )">
    <use xlink:href="#widget22" filter="url(#filter21)" />
    <use xlink:href="#widget22" />
  </g>
</svg>