<?xml version="1.0" encoding="utf-8"?>
<svg version="1.1" xmlns:xlink="http://www.w3.org/1999/xlink" width="40px" height="40px" xmlns="http://www.w3.org/2000/svg">
  <defs>
    <filter x="951px" y="457px" width="40px" height="40px" filterUnits="userSpaceOnUse" id="filter23">
      <feOffset dx="1" dy="1" in="SourceAlpha" result="shadowOffsetInner" />
      <feGaussianBlur stdDeviation="2.5" in="shadowOffsetInner" result="shadowGaussian" />
      <feComposite in2="shadowGaussian" operator="atop" in="SourceAlpha" result="shadowComposite" />
      <feColorMatrix type="matrix" values="0 0 0 0 0  0 0 0 0 0  0 0 0 0 0  0 0 0 0.698039215686274 0  " in="shadowComposite" />
    </filter>
    <g id="widget24">
      <path d="M 970 461  C 978.4 461  985 467.6  985 476  C 985 484.4  978.4 491  970 491  C 961.6 491  955 484.4  955 476  C 955 467.6  961.6 461  970 461  Z " fill-rule="nonzero" fill="#000000" stroke="none" />
      <path d="M 970 461.5  C 978.12 461.5  984.5 467.88  984.5 476  C 984.5 484.12  978.12 490.5  970 490.5  C 961.88 490.5  955.5 484.12  955.5 476  C 955.5 467.88  961.88 461.5  970 461.5  Z " stroke-width="1" stroke="#ffffff" fill="none" />
    </g>
  </defs>
  <g transform="matrix(1 0 0 1 -951 -457 )">
    <use xlink:href="#widget24" filter="url(#filter23)" />
    <use xlink:href="#widget24" />
  </g>
</svg>